<svg width="48" height="48" viewBox="0 0 48 48" fill="none" xmlns="http://www.w3.org/2000/svg">
<g clip-path="url(#clip0_130_4)">
<path d="M47.95 0.0499878H0.0499878V47.95H47.95V0.0499878Z" fill="#B3B3B3"/>
<path d="M47.9 0.1V47.9H0.1V0.1H47.9ZM48 0H0V48H48V0Z" fill="black"/>
<path d="M2.30798 40.561H2.95398V40.815H2.90798L2.30798 40.746V40.561ZM2.30798 43.469L2.90798 43.4H2.95398V43.654H2.30798V43.469ZM2.74598 42.223V41.992C2.74598 41.516 2.74598 41.036 2.73198 40.561H3.17498C3.16198 41.027 3.16198 41.507 3.16198 41.992V42.223C3.16198 42.698 3.16198 43.178 3.17498 43.654H2.73198C2.74598 43.187 2.74598 42.707 2.74598 42.223V42.223ZM2.95398 40.561H4.53298L4.56498 41.383H4.30598L4.16298 40.561L4.37098 40.792H2.95398V40.561ZM2.95398 43.441H3.48498C4.10798 43.441 4.35198 43.22 4.35198 42.749C4.35198 42.324 4.16798 42.093 3.53098 42.093C3.33752 42.0877 3.14404 42.1035 2.95398 42.14V41.909C3.17754 41.8804 3.4026 41.865 3.62798 41.863C4.40798 41.863 4.79098 42.236 4.79098 42.74C4.79098 43.192 4.49598 43.654 3.54498 43.654H2.95398V43.441Z" fill="white"/>
<path d="M5.04498 40.561H6.33798V40.746L5.73798 40.815H5.64498L5.04498 40.746V40.561ZM5.04498 43.469L5.64498 43.4H5.73798L6.33798 43.469V43.654H5.04498V43.469ZM5.48398 42.223V41.992C5.48398 41.516 5.48398 41.036 5.46998 40.561H5.91298C5.89898 41.027 5.89898 41.507 5.89898 41.992V43.654H5.46998C5.48398 43.187 5.48398 42.707 5.48398 42.223ZM5.64098 43.21L7.71798 40.667V41.009L5.64098 43.538V43.21ZM7.02098 40.561H8.31298V40.746L7.71298 40.815H7.62098L7.02098 40.746V40.561ZM7.02098 43.469L7.62098 43.4H7.71298L8.31298 43.469V43.654H7.02098V43.469ZM7.45898 42.13V40.561H7.88898C7.87498 41.027 7.87498 41.507 7.87498 41.992V42.223C7.87498 42.698 7.87498 43.178 7.88898 43.654H7.44498C7.45898 43.187 7.45898 42.707 7.45898 42.13Z" fill="white"/>
<path d="M9.61997 43.492C10.132 43.492 10.409 43.243 10.409 42.772C10.409 42.43 10.225 42.172 9.64297 42.172H9.46297V41.941H9.63397C10.134 41.941 10.345 41.696 10.345 41.318C10.345 40.918 10.077 40.718 9.68897 40.718C9.43714 40.7141 9.18932 40.7814 8.97397 40.912V40.718L9.28297 40.589L9.15397 41.309H8.87697L8.84897 40.686C9.1227 40.5496 9.42519 40.481 9.73097 40.486C10.349 40.486 10.76 40.777 10.76 41.298C10.76 41.653 10.451 41.99 9.93797 42.069V42.018C10.575 42.073 10.848 42.383 10.848 42.807C10.848 43.343 10.4 43.717 9.67497 43.717C9.16297 43.717 8.74797 43.517 8.65997 43.038C8.68181 42.9928 8.71586 42.9546 8.75827 42.9277C8.80069 42.9009 8.84977 42.8864 8.89997 42.886C9.06097 42.886 9.11197 42.992 9.17697 43.227L9.27697 43.592L9.07697 43.384C9.24868 43.4568 9.43349 43.4935 9.61997 43.492V43.492Z" fill="white"/>
<path d="M11.148 40.746V40.561H12.441V40.746L11.841 40.815H11.749L11.148 40.746ZM11.84 43.4L12.44 43.469V43.654H11.148V43.469L11.748 43.4H11.84ZM11.587 41.992C11.587 41.516 11.587 41.036 11.573 40.561H12.016C12.002 41.027 12.002 41.507 12.002 41.992V42.13C12.002 42.698 12.002 43.178 12.016 43.654H11.573C11.587 43.187 11.587 42.707 11.587 42.223V41.992ZM11.794 42.176V41.964H13.733V42.176H11.794ZM13.087 40.746V40.561H14.379V40.746L13.779 40.815H13.687L13.087 40.746ZM13.779 43.4L14.379 43.469V43.654H13.087V43.469L13.687 43.4H13.779ZM13.525 41.992C13.525 41.516 13.525 41.036 13.511 40.561H13.954C13.941 41.027 13.941 41.507 13.941 41.992V42.223C13.941 42.698 13.941 43.178 13.954 43.654H13.511C13.525 43.187 13.525 42.707 13.525 42.13V41.992Z" fill="white"/>
<path d="M14.8 40.746V40.561H15.446V40.815H15.4L14.8 40.746ZM15.441 43.4V43.654H14.8V43.469L15.4 43.4H15.441ZM15.233 41.992C15.233 41.516 15.233 41.036 15.22 40.561H15.663C15.649 41.027 15.649 41.507 15.649 41.992V42.167C15.649 42.698 15.649 43.178 15.663 43.654H15.22C15.233 43.187 15.233 42.707 15.233 42.223V41.992ZM16.72 40.561L16.927 40.792H15.441V40.561H17.089L17.121 41.383H16.863L16.72 40.561ZM16.484 42.181H15.441V41.969H16.484V42.181ZM17.214 42.832L17.181 43.654H15.441V43.423H17.02L16.812 43.654L16.955 42.832H17.214ZM16.337 42.015L16.406 41.526H16.614V42.62H16.406L16.337 42.107V42.015Z" fill="white"/>
<path d="M20 43.2V43.453L19.714 43.518L19.83 42.835H20.111L20.09 43.5C19.8024 43.6507 19.4816 43.7271 19.157 43.722C18.225 43.722 17.597 43.048 17.597 42.106C17.597 41.183 18.253 40.491 19.153 40.491C19.4642 40.4856 19.7714 40.5618 20.044 40.712L20.062 41.382H19.78L19.665 40.7L19.951 40.765V41.047C19.755 40.8463 19.4884 40.73 19.208 40.723C18.585 40.723 18.082 41.208 18.082 42.108C18.082 43.008 18.534 43.493 19.176 43.493C19.4765 43.495 19.7682 43.3913 20 43.2V43.2Z" fill="white"/>
<path d="M20.478 42.347H21.539V42.647H20.478V42.347Z" fill="white"/>
<path d="M21.932 40.561H23.224V40.746L22.624 40.815H22.532L21.932 40.746V40.561ZM21.932 43.469L22.532 43.4H22.624L23.224 43.469V43.654H21.932V43.469ZM22.37 42.223V41.992C22.37 41.516 22.37 41.036 22.357 40.561H22.8C22.786 41.027 22.786 41.507 22.786 42.052V42.176C22.786 42.698 22.786 43.176 22.8 43.654H22.357C22.37 43.187 22.37 42.707 22.37 42.223ZM23.557 42.583C23.478 42.32 23.303 42.223 22.984 42.223H22.578V42.015H22.929C23.266 42.015 23.39 41.946 23.607 41.396C23.894 40.676 24.092 40.519 24.369 40.483C24.4321 40.4856 24.4917 40.5124 24.5355 40.5578C24.5793 40.6033 24.6038 40.6639 24.604 40.727C24.604 40.842 24.504 40.981 24.286 40.981C24.1577 40.9801 24.0302 40.9616 23.907 40.926L24.249 40.718C24.055 40.93 23.967 41.11 23.801 41.489C23.575 42.006 23.418 42.126 23.063 42.181L23.021 42.066C23.566 42.093 23.852 42.266 23.986 42.666L24.272 43.501L24.172 43.413L24.725 43.469V43.654C24.5907 43.6858 24.453 43.7013 24.315 43.7C24.015 43.7 23.872 43.63 23.807 43.413L23.557 42.583Z" fill="white"/>
<path d="M27.628 42.107C27.628 43.118 26.936 43.723 26.22 43.723C25.504 43.723 24.808 43.16 24.808 42.107C24.808 41.096 25.508 40.492 26.22 40.492C26.932 40.492 27.628 41.055 27.628 42.107ZM26.22 43.492C26.871 43.492 27.143 42.8 27.143 42.107C27.143 41.414 26.871 40.722 26.22 40.722C25.569 40.722 25.293 41.415 25.293 42.107C25.293 42.799 25.57 43.492 26.22 43.492Z" fill="white"/>
<path d="M27.942 40.746V40.561H29.235V40.746L28.635 40.815H28.542L27.942 40.746ZM28.635 43.4L29.235 43.469V43.654H27.942V43.469L28.542 43.4H28.635ZM28.381 41.992C28.381 41.516 28.381 41.036 28.367 40.561H28.81C28.796 41.027 28.796 41.507 28.796 41.992V42.13C28.796 42.698 28.796 43.178 28.81 43.654H28.367C28.381 43.187 28.381 42.707 28.381 42.223V41.992ZM28.589 42.176V41.964H30.527V42.176H28.589ZM29.881 40.746V40.561H31.173V40.746L30.573 40.815H30.481L29.881 40.746ZM30.573 43.4L31.173 43.469V43.654H29.881V43.469L30.481 43.4H30.573ZM30.32 41.992C30.32 41.516 30.32 41.036 30.306 40.561H30.749C30.735 41.027 30.735 41.507 30.735 41.992V42.223C30.735 42.698 30.735 43.178 30.749 43.654H30.306C30.32 43.187 30.32 42.707 30.32 42.13V41.992Z" fill="white"/>
<path d="M31.672 40.792L31.88 40.561L31.732 41.383H31.474L31.511 40.561H34.031L34.068 41.383H33.809L33.662 40.561L33.869 40.792H31.672ZM32.817 43.4L33.463 43.469V43.654H32.079V43.469L32.725 43.4H32.817ZM32.563 41.992C32.563 41.516 32.563 41.036 32.549 40.561H32.992C32.979 41.027 32.979 41.507 32.979 41.992V42.223C32.979 42.698 32.979 43.178 32.992 43.654H32.549C32.563 43.187 32.563 42.707 32.563 42.223V41.992Z" fill="white"/>
<path d="M34.368 40.746V40.561H35.015V40.815H34.968L34.368 40.746ZM35.061 43.4L35.661 43.469V43.654H34.368V43.469L34.968 43.4H35.061ZM34.807 41.992C34.807 41.516 34.807 41.036 34.793 40.561H35.236C35.222 41.027 35.222 41.507 35.222 41.992V42.273C35.222 42.744 35.222 43.173 35.236 43.654H34.793C34.807 43.187 34.807 42.707 34.807 42.223V41.992ZM35.471 42.43H35.015V42.218H35.541C36.108 42.218 36.33 41.918 36.33 41.479C36.33 41.04 36.081 40.773 35.522 40.773H35.015V40.561H35.615C36.381 40.561 36.774 40.939 36.774 41.479C36.769 42 36.413 42.43 35.471 42.43Z" fill="white"/>
<path d="M36.621 43.469L37.083 43.4H37.175L37.683 43.469V43.654H36.621V43.469ZM38 40.538H38.277L39.338 43.654H38.909L37.981 40.889H38.087L37.146 43.654H36.929L38 40.538ZM37.46 42.43H38.7L38.774 42.643H37.383L37.46 42.43ZM38.369 43.469L38.95 43.4H39.043L39.615 43.469V43.654H38.366L38.369 43.469Z" fill="white"/>
<path d="M39.82 40.561H41.113V40.746L40.513 40.815H40.42L39.82 40.746V40.561ZM39.82 43.469L40.42 43.4H40.513L41.113 43.469V43.654H39.82V43.469ZM40.259 42.223V41.992C40.259 41.516 40.259 41.036 40.245 40.561H40.688C40.674 41.027 40.674 41.507 40.674 42.052V42.176C40.674 42.698 40.674 43.176 40.688 43.654H40.245C40.259 43.187 40.259 42.707 40.259 42.223ZM41.445 42.583C41.367 42.32 41.191 42.223 40.873 42.223H40.467V42.015H40.817C41.154 42.015 41.279 41.946 41.496 41.396C41.782 40.676 41.98 40.519 42.257 40.483C42.3202 40.4853 42.3801 40.512 42.4241 40.5575C42.4681 40.603 42.4928 40.6637 42.493 40.727C42.493 40.842 42.393 40.981 42.174 40.981C42.0461 40.98 41.9189 40.9615 41.796 40.926L42.137 40.718C41.944 40.93 41.856 41.11 41.69 41.489C41.464 42.006 41.307 42.126 40.951 42.181L40.91 42.066C41.454 42.093 41.74 42.266 41.874 42.666L42.161 43.501L42.061 43.413L42.615 43.469V43.654C42.4791 43.6862 42.3397 43.7016 42.2 43.7C41.905 43.7 41.757 43.63 41.692 43.413L41.445 42.583Z" fill="white"/>
<path d="M42.9 40.792L43.108 40.561L42.96 41.383H42.701L42.738 40.561H45.259L45.296 41.383H45.037L44.889 40.561L45.097 40.792H42.9ZM44.049 43.4L44.695 43.469V43.654H43.31V43.469L43.956 43.4H44.049ZM43.8 41.992C43.8 41.516 43.8 41.036 43.786 40.561H44.229C44.215 41.027 44.215 41.507 44.215 41.992V42.223C44.215 42.698 44.215 43.178 44.229 43.654H43.786C43.8 43.187 43.8 42.707 43.8 42.223V41.992Z" fill="white"/>
</g>
<defs>
<clipPath id="clip0_130_4">
<rect width="48" height="48" fill="white"/>
</clipPath>
</defs>
</svg>
