<svg width="159" height="20" viewBox="0 0 159 20" fill="none" xmlns="http://www.w3.org/2000/svg">
<path d="M0.478438 11.152C0.478438 9.216 0.718438 7.576 1.19844 6.232C1.67844 4.872 2.43844 3.792 3.47844 2.992C4.51844 2.176 5.87844 1.624 7.55844 1.336C8.40644 1.192 9.26244 1.072 10.1264 0.975999C11.0064 0.863999 11.9104 0.751999 12.8384 0.639999L13.2464 3.76C12.8464 3.808 12.4064 3.864 11.9264 3.928C11.4464 3.976 10.9584 4.032 10.4624 4.096C9.98244 4.144 9.51844 4.2 9.07044 4.264C8.62244 4.328 8.21444 4.384 7.84644 4.432C7.25444 4.528 6.73444 4.664 6.28644 4.84C5.83844 5 5.46244 5.232 5.15844 5.536C4.85444 5.84 4.61444 6.256 4.43844 6.784C4.27844 7.296 4.17444 7.96 4.12644 8.776H4.29444C4.48644 8.472 4.75044 8.168 5.08644 7.864C5.43844 7.56 5.87044 7.304 6.38244 7.096C6.89444 6.888 7.47844 6.784 8.13444 6.784C9.17444 6.784 10.0784 7 10.8464 7.432C11.6144 7.864 12.2064 8.504 12.6224 9.352C13.0384 10.2 13.2464 11.256 13.2464 12.52C13.2464 14.008 12.9744 15.248 12.4304 16.24C11.8864 17.232 11.1344 17.984 10.1744 18.496C9.21444 18.992 8.10244 19.24 6.83844 19.24C5.87844 19.24 5.00644 19.064 4.22244 18.712C3.43844 18.36 2.76644 17.84 2.20644 17.152C1.64644 16.464 1.21444 15.616 0.910438 14.608C0.622438 13.6 0.478438 12.448 0.478438 11.152ZM7.05444 16.336C7.56644 16.336 8.00644 16.224 8.37444 16C8.75844 15.776 9.05444 15.408 9.26244 14.896C9.48644 14.384 9.59844 13.696 9.59844 12.832C9.59844 11.792 9.42244 10.968 9.07044 10.36C8.73444 9.736 8.14244 9.424 7.29444 9.424C6.78244 9.424 6.30244 9.552 5.85444 9.808C5.42244 10.048 5.05444 10.328 4.75044 10.648C4.44644 10.952 4.23844 11.216 4.12644 11.44C4.12644 12.064 4.17444 12.672 4.27044 13.264C4.36644 13.84 4.52644 14.36 4.75044 14.824C4.97444 15.288 5.27044 15.656 5.63844 15.928C6.02244 16.2 6.49444 16.336 7.05444 16.336ZM19.6561 11.08C19.6561 11.352 19.6401 11.688 19.6081 12.088C19.5921 12.488 19.5681 12.896 19.5361 13.312C19.5201 13.728 19.4961 14.096 19.4641 14.416C19.4321 14.736 19.4081 14.96 19.3921 15.088L25.4401 5.896H29.7361V19H26.2801V13.768C26.2801 13.336 26.2961 12.864 26.3281 12.352C26.3601 11.824 26.3921 11.336 26.4241 10.888C26.4721 10.424 26.5041 10.072 26.5201 9.832L20.4961 19H16.2001V5.896H19.6561V11.08ZM38.2496 5.656C39.1936 5.656 40.0736 5.784 40.8896 6.04C41.7216 6.28 42.3856 6.656 42.8816 7.168C43.3936 7.68 43.6496 8.336 43.6496 9.136C43.6496 9.92 43.4096 10.544 42.9296 11.008C42.4656 11.472 41.8336 11.808 41.0336 12.016V12.136C41.5936 12.264 42.0976 12.448 42.5456 12.688C42.9936 12.912 43.3456 13.224 43.6016 13.624C43.8736 14.008 44.0096 14.528 44.0096 15.184C44.0096 15.904 43.7776 16.576 43.3136 17.2C42.8656 17.808 42.1616 18.304 41.2016 18.688C40.2576 19.056 39.0416 19.24 37.5536 19.24C36.8496 19.24 36.1856 19.208 35.5616 19.144C34.9376 19.08 34.3696 18.992 33.8576 18.88C33.3456 18.752 32.8976 18.6 32.5136 18.424V15.472C33.0576 15.728 33.7216 15.96 34.5056 16.168C35.3056 16.376 36.1536 16.48 37.0496 16.48C37.7056 16.48 38.2896 16.432 38.8016 16.336C39.3296 16.24 39.7456 16.08 40.0496 15.856C40.3696 15.632 40.5296 15.336 40.5296 14.968C40.5296 14.616 40.3936 14.328 40.1216 14.104C39.8496 13.864 39.4416 13.688 38.8976 13.576C38.3536 13.464 37.6576 13.408 36.8096 13.408H35.4176V10.936H36.7376C37.9216 10.936 38.8336 10.84 39.4736 10.648C40.1296 10.456 40.4576 10.096 40.4576 9.568C40.4576 9.152 40.2496 8.84 39.8336 8.632C39.4176 8.408 38.7376 8.296 37.7936 8.296C37.1696 8.296 36.4896 8.368 35.7536 8.512C35.0176 8.656 34.3216 8.864 33.6656 9.136L32.6096 6.64C33.3616 6.352 34.1856 6.12 35.0816 5.944C35.9776 5.752 37.0336 5.656 38.2496 5.656ZM50.3621 5.896V10.936H55.3541V5.896H58.9301V19H55.3541V13.6H50.3621V19H46.7861V5.896H50.3621ZM68.0767 5.656C69.2927 5.656 70.3327 5.888 71.1967 6.352C72.0767 6.816 72.7567 7.488 73.2367 8.368C73.7167 9.248 73.9567 10.328 73.9567 11.608V13.336H65.5087C65.5407 14.344 65.8367 15.136 66.3967 15.712C66.9727 16.288 67.7647 16.576 68.7727 16.576C69.6207 16.576 70.3887 16.496 71.0767 16.336C71.7647 16.16 72.4767 15.896 73.2127 15.544V18.304C72.5727 18.624 71.8927 18.856 71.1727 19C70.4687 19.16 69.6127 19.24 68.6047 19.24C67.2927 19.24 66.1327 19 65.1247 18.52C64.1167 18.024 63.3247 17.28 62.7487 16.288C62.1727 15.296 61.8847 14.048 61.8847 12.544C61.8847 11.008 62.1407 9.736 62.6527 8.728C63.1807 7.704 63.9087 6.936 64.8367 6.424C65.7647 5.912 66.8447 5.656 68.0767 5.656ZM68.1007 8.2C67.4127 8.2 66.8367 8.424 66.3727 8.872C65.9247 9.32 65.6607 10.016 65.5807 10.96H70.5967C70.5967 10.432 70.5007 9.96 70.3087 9.544C70.1327 9.128 69.8607 8.8 69.4927 8.56C69.1247 8.32 68.6607 8.2 68.1007 8.2ZM82.1844 19.24C80.8884 19.24 79.7844 19.008 78.8724 18.544C77.9604 18.064 77.2644 17.328 76.7844 16.336C76.3044 15.344 76.0644 14.072 76.0644 12.52C76.0644 10.92 76.3364 9.616 76.8804 8.608C77.4244 7.6 78.1764 6.856 79.1364 6.376C80.1124 5.896 81.2324 5.656 82.4964 5.656C83.3924 5.656 84.1684 5.744 84.8244 5.92C85.4964 6.096 86.0804 6.304 86.5764 6.544L85.5204 9.304C84.9604 9.08 84.4324 8.896 83.9364 8.752C83.4564 8.608 82.9764 8.536 82.4964 8.536C81.8724 8.536 81.3524 8.688 80.9364 8.992C80.5204 9.28 80.2084 9.72 80.0004 10.312C79.8084 10.888 79.7124 11.616 79.7124 12.496C79.7124 13.36 79.8164 14.08 80.0244 14.656C80.2484 15.216 80.5684 15.64 80.9844 15.928C81.4004 16.2 81.9044 16.336 82.4964 16.336C83.2484 16.336 83.9124 16.24 84.4884 16.048C85.0644 15.84 85.6244 15.56 86.1684 15.208V18.256C85.6244 18.608 85.0484 18.856 84.4404 19C83.8484 19.16 83.0964 19.24 82.1844 19.24ZM96.8281 8.48828V13.5977H88.0039V8.48828H96.8281ZM112.878 5.896V19H109.302V8.584H104.55V19H100.974V5.896H112.878ZM128.366 19H124.79V8.584H121.502C121.342 10.504 121.142 12.144 120.902 13.504C120.678 14.848 120.39 15.944 120.038 16.792C119.702 17.64 119.27 18.264 118.742 18.664C118.214 19.048 117.566 19.24 116.798 19.24C116.382 19.24 116.006 19.208 115.67 19.144C115.334 19.08 115.03 18.984 114.758 18.856V16C114.934 16.064 115.118 16.12 115.31 16.168C115.502 16.216 115.702 16.24 115.91 16.24C116.134 16.24 116.342 16.152 116.534 15.976C116.742 15.8 116.934 15.488 117.11 15.04C117.302 14.592 117.478 13.976 117.638 13.192C117.798 12.408 117.942 11.424 118.07 10.24C118.214 9.04 118.342 7.592 118.454 5.896H128.366V19ZM137.475 5.632C139.235 5.632 140.579 6.016 141.507 6.784C142.451 7.536 142.923 8.696 142.923 10.264V19H140.427L139.731 17.224H139.635C139.267 17.688 138.883 18.072 138.483 18.376C138.099 18.68 137.651 18.896 137.139 19.024C136.643 19.168 136.027 19.24 135.291 19.24C134.523 19.24 133.827 19.096 133.203 18.808C132.595 18.504 132.115 18.048 131.763 17.44C131.411 16.816 131.235 16.032 131.235 15.088C131.235 13.696 131.723 12.672 132.699 12.016C133.675 11.344 135.139 10.976 137.091 10.912L139.371 10.84V10.264C139.371 9.576 139.187 9.072 138.819 8.752C138.467 8.432 137.971 8.272 137.331 8.272C136.691 8.272 136.067 8.368 135.459 8.56C134.851 8.736 134.243 8.96 133.635 9.232L132.459 6.808C133.163 6.44 133.939 6.152 134.787 5.944C135.651 5.736 136.547 5.632 137.475 5.632ZM137.979 12.976C136.827 13.008 136.027 13.216 135.579 13.6C135.131 13.984 134.907 14.488 134.907 15.112C134.907 15.656 135.067 16.048 135.387 16.288C135.707 16.512 136.123 16.624 136.635 16.624C137.403 16.624 138.051 16.4 138.579 15.952C139.107 15.488 139.371 14.84 139.371 14.008V12.928L137.979 12.976ZM150.159 5.896V10.936H155.151V5.896H158.727V19H155.151V13.6H150.159V19H146.583V5.896H150.159Z" fill="black"/>
</svg>
